<svg xmlns="http://www.w3.org/2000/svg" xmlns:xlink="http://www.w3.org/1999/xlink" xml:space="preserve" version="1.1" style="shape-rendering:geometricPrecision;text-rendering:geometricPrecision;image-rendering:optimizeQuality;" viewBox="0 0 280 350" x="0px" y="0px" fill-rule="evenodd" clip-rule="evenodd"><defs><style type="text/css">
   
    .fil0 {fill:black;fill-rule:nonzero}
   
  </style></defs><g><path class="fil0" d="M66.017 33.53l31.1 55.642 38.464 -55.642 -69.564 0zm152.307 22.156c-0.522,-0.656 -0.413,-1.611 0.243,-2.133 0.657,-0.521 1.612,-0.412 2.133,0.244l21.562 27.178c0.522,0.657 0.413,1.612 -0.243,2.133 -0.657,0.522 -1.612,0.413 -2.133,-0.244l-21.562 -27.178zm20.619 48.568c0.538,-0.643 1.496,-0.728 2.139,-0.19 0.643,0.538 0.728,1.496 0.19,2.139l-45.452 54.14c-0.538,0.643 -1.496,0.728 -2.139,0.19 -0.643,-0.538 -0.728,-1.496 -0.19,-2.138l45.452 -54.141zm-95.463 -70.724l35.95 55.492 33.573 -55.492 -69.523 0zm73.41 1.372l-33.203 54.881 77.933 -0.149 -44.73 -54.732zm44.715 60.789l-79.759 0.152 -35.763 141.203 115.522 -141.355zm-128.479 140.869l-38.487 -140.551 -76.259 0.146 114.746 140.405zm-114.814 -146.463l74.63 -0.142 -30.689 -54.905 -43.941 55.047zm119.139 161.335l-127.7 -156.257c-0.98,-1.082 -1.062,-2.744 -0.124,-3.924l49.893 -62.505c0.55,-0.784 1.46,-1.297 2.491,-1.297l155.187 0 0 0.01c0.881,0 1.753,0.382 2.352,1.118l50.772 62.127c0.919,1.091 0.964,2.715 0.031,3.862l-128.172 156.834c-0.135,0.17 -0.291,0.329 -0.466,0.472 -1.299,1.055 -3.208,0.858 -4.264,-0.44zm-35.968 -161.493l73.651 -0.14 -35.584 -54.927 -38.067 55.067zm74.118 5.916l-74.708 0.143 38.792 141.665 35.916 -141.808z"/></g><text x="0" y="295" fill="#000000" font-size="5px" font-weight="bold" font-family="'Helvetica Neue', Helvetica, Arial-Unicode, Arial, Sans-serif">Created by popcornarts</text><text x="0" y="300" fill="#000000" font-size="5px" font-weight="bold" font-family="'Helvetica Neue', Helvetica, Arial-Unicode, Arial, Sans-serif">from the Noun Project</text></svg>